<svg width="430" height="116" viewBox="0 0 430 116" fill="none" xmlns="http://www.w3.org/2000/svg">
<g style="mix-blend-mode:luminosity">
<path fill-rule="evenodd" clip-rule="evenodd" d="M108.651 37.8069C101.471 42.4973 91.0639 44.9998 82.1036 44.9998C69.54 44.9998 58.2295 40.8814 49.6726 34.0316C49.0003 33.493 49.6027 32.7589 50.4094 33.1784C59.644 37.9403 71.062 40.8051 82.8566 40.8051C90.8111 40.8051 99.5615 39.3465 107.607 36.3196C108.823 35.862 109.839 37.0251 108.651 37.8069Z" fill="#FF9900"/>
<path fill-rule="evenodd" clip-rule="evenodd" d="M111.636 34.78C110.722 33.7409 105.569 34.2891 103.257 34.5322C102.552 34.6084 102.444 34.065 103.079 33.6741C107.183 31.1144 113.916 31.8533 114.701 32.7113C115.487 33.574 114.497 39.5563 110.641 42.4115C110.049 42.8501 109.485 42.6165 109.748 42.035C110.614 40.1187 112.556 35.8239 111.636 34.78Z" fill="#FF9900"/>
<path fill-rule="evenodd" clip-rule="evenodd" d="M103.418 15.6036V13.1154C103.418 12.7388 103.741 12.4862 104.128 12.4862H116.697C117.101 12.4862 117.423 12.7436 117.423 13.1154V15.2461C117.418 15.6036 117.079 16.0708 116.477 16.8096L109.964 25.0513C112.384 24.9988 114.939 25.3182 117.133 26.4145C117.628 26.6624 117.762 27.0247 117.8 27.3822V30.0373C117.8 30.3995 117.348 30.8238 116.875 30.6045C113.008 28.8074 107.871 28.612 103.596 30.6236C103.16 30.8333 102.703 30.4138 102.703 30.0516V27.53C102.703 27.1248 102.708 26.4336 103.165 25.8187L110.711 16.2281H104.144C103.741 16.2281 103.418 15.9754 103.418 15.6036Z" fill="black"/>
<path fill-rule="evenodd" clip-rule="evenodd" d="M57.5684 31.1289H53.7444C53.3787 31.105 53.0883 30.8619 53.0614 30.5521V13.1583C53.0614 12.8104 53.3895 12.5339 53.7982 12.5339H57.364C57.7351 12.5482 58.0309 12.8008 58.0578 13.1154V15.3892H58.1277C59.0582 13.1917 60.8061 12.1669 63.1618 12.1669C65.5551 12.1669 67.0503 13.1917 68.1259 15.3892C69.051 13.1917 71.1539 12.1669 73.4074 12.1669C75.0101 12.1669 76.7635 12.7532 77.8337 14.0688C79.0438 15.5322 78.7965 17.6581 78.7965 19.5219L78.7911 30.4997C78.7911 30.8476 78.463 31.1289 78.0543 31.1289H74.2357C73.8538 31.105 73.5473 30.8333 73.5473 30.4997V21.2808C73.5473 20.5468 73.6225 18.7163 73.4397 18.0204C73.1546 16.8526 72.2995 16.5236 71.1916 16.5236C70.2665 16.5236 69.2984 17.0718 68.9058 17.9489C68.5132 18.826 68.5508 20.2941 68.5508 21.2808V30.4997C68.5508 30.8476 68.2228 31.1289 67.814 31.1289H63.9954C63.6082 31.105 63.307 30.8333 63.307 30.4997L63.3016 21.2808C63.3016 19.3408 63.662 16.4855 60.9459 16.4855C58.1976 16.4855 58.3052 19.2693 58.3052 21.2808V30.4997C58.3052 30.8476 57.9771 31.1289 57.5684 31.1289Z" fill="black"/>
<path fill-rule="evenodd" clip-rule="evenodd" d="M128.244 12.1669C133.918 12.1669 136.989 16.4855 136.989 21.9768C136.989 27.2821 133.596 31.4911 128.244 31.4911C122.672 31.4911 119.639 27.1725 119.639 21.7909C119.639 16.3759 122.71 12.1669 128.244 12.1669ZM128.276 15.7181C125.458 15.7181 125.281 19.1215 125.281 21.2427C125.281 23.3686 125.243 27.9066 128.244 27.9066C131.208 27.9066 131.347 24.2457 131.347 22.0149C131.347 20.5468 131.278 18.7926 130.777 17.4007C130.347 16.19 129.492 15.7181 128.276 15.7181Z" fill="black"/>
<path fill-rule="evenodd" clip-rule="evenodd" d="M144.347 31.1289H140.539C140.157 31.105 139.851 30.8333 139.851 30.4997L139.845 13.1011C139.878 12.7818 140.195 12.5339 140.582 12.5339H144.126C144.46 12.5482 144.734 12.7484 144.809 13.0201V15.6799H144.879C145.95 13.3013 147.45 12.1669 150.091 12.1669C151.807 12.1669 153.479 12.715 154.555 14.2166C155.555 15.6084 155.555 17.9489 155.555 19.6315V30.5807C155.512 30.8858 155.195 31.1289 154.818 31.1289H150.984C150.634 31.105 150.344 30.8762 150.306 30.5807V21.1331C150.306 19.2311 150.553 16.4474 147.913 16.4474C146.982 16.4474 146.127 17.0003 145.702 17.8393C145.164 18.9022 145.095 19.9605 145.095 21.1331V30.4997C145.089 30.8476 144.756 31.1289 144.347 31.1289Z" fill="black"/>
<path fill-rule="evenodd" clip-rule="evenodd" d="M93.3985 22.8204C93.3985 24.1408 93.4362 25.2419 92.6832 26.4146C92.0755 27.3679 91.1074 27.9542 90.0371 27.9542C88.5688 27.9542 87.7083 26.9627 87.7083 25.4993C87.7083 22.6107 90.6287 22.0864 93.3985 22.0864V22.8204ZM97.2548 31.0812C97.002 31.2814 96.6363 31.2957 96.3512 31.1622C95.0819 30.2279 94.8507 29.7942 94.1569 28.9028C92.0593 30.7999 90.5696 31.3672 87.8535 31.3672C84.6319 31.3672 82.131 29.6083 82.131 26.0857C82.131 23.3353 83.8091 21.4619 86.2078 20.5467C88.2838 19.7364 91.1827 19.5934 93.3985 19.3693V18.9308C93.3985 18.1252 93.4685 17.1719 92.9306 16.476C92.4681 15.8515 91.5753 15.5941 90.7847 15.5941C89.3272 15.5941 88.031 16.2567 87.7137 17.6295C87.6492 17.9346 87.3964 18.2349 87.0468 18.2492L83.3412 17.8964C83.0292 17.8345 82.6796 17.6104 82.7711 17.1862C83.6208 13.2012 87.6868 12 91.3225 12C93.1834 12 95.6144 12.4385 97.0827 13.6874C98.9435 15.2271 98.7661 17.2815 98.7661 19.5171V24.7986C98.7661 26.386 99.5083 27.0819 100.207 27.9399C100.449 28.245 100.503 28.612 100.191 28.8408C99.4114 29.4176 98.0238 30.4901 97.2601 31.0907L97.2548 31.0812Z" fill="black"/>
<path fill-rule="evenodd" clip-rule="evenodd" d="M43.2675 22.8204C43.2675 24.1408 43.3051 25.2419 42.5522 26.4145C41.9444 27.3679 40.9817 27.9542 39.9061 27.9542C38.4378 27.9542 37.5826 26.9627 37.5826 25.4993C37.5826 22.6107 40.5031 22.0864 43.2675 22.0864V22.8204ZM47.1237 31.0812C46.8709 31.2814 46.5052 31.2957 46.2202 31.1622C44.9509 30.2279 44.725 29.7941 44.0258 28.9028C41.9283 30.7999 40.4439 31.3672 37.7225 31.3672C34.5063 31.3672 32 29.6082 32 26.0856C32 23.3352 33.6834 21.4619 36.0767 20.5467C38.1527 19.7364 41.0516 19.5934 43.2675 19.3693V18.9308C43.2675 18.1252 43.3374 17.1719 42.805 16.4759C42.337 15.8515 41.4443 15.5941 40.659 15.5941C39.2015 15.5941 37.9 16.2567 37.5826 17.6295C37.5181 17.9346 37.2653 18.2349 36.9211 18.2492L33.2101 17.8964C32.8982 17.8345 32.554 17.6104 32.64 17.1862C33.4952 13.2012 37.5558 12 41.1915 12C43.0524 12 45.4833 12.4385 46.9516 13.6874C48.8125 15.2271 48.635 17.2815 48.635 19.5171V24.7986C48.635 26.3859 49.3772 27.0819 50.0764 27.9399C50.3238 28.245 50.3776 28.612 50.0656 28.8408C49.2858 29.4176 47.8982 30.4901 47.1345 31.0907L47.1237 31.0812Z" fill="black"/>
<path fill-rule="evenodd" clip-rule="evenodd" d="M319.573 30.5633C314.317 38.4606 305.994 36.1691 303.494 34.3749C302.43 35.0147 300.565 36.417 298.077 36.255C292.779 35.9104 290.882 29.2007 290.882 29.2007C290.92 29.2275 289.304 29.6949 288.431 29.6866C288.42 31.6542 286.5 36.3546 281.321 36.2945C275.509 36.2273 274.328 28.5531 274.328 28.5531C274.328 28.5531 273.749 29.2649 271.55 29.9739C271.661 28.4622 271.58 36.0644 264.614 36.1761C259.107 36.2646 257.621 28.4348 257.621 28.4348C257.621 28.4348 256.665 29.3143 254.814 29.6194C254.931 28.0831 254.74 36.2019 247.773 36.1761C243.065 36.1588 241.457 31.353 241.582 30.686C241.741 29.8359 239.991 36.2957 235.417 36.195C233.53 36.1459 232.123 34.9349 231.24 33.3204C230.059 34.5189 228.343 36.195 226.418 36.195C222.962 36.195 221.439 33.6337 221.697 26.3179C221.719 25.4502 221.649 25.109 220.675 24.9792C220.091 24.8928 219.493 24.7292 218.86 24.643C218.657 25.243 216.936 35.9998 211.02 36.204C209.035 36.2725 207.949 34.7485 207.058 33.6174C205.691 35.2194 203.888 36.255 201.318 36.255C196.966 36.255 194 33.1365 194 29.2895C194 25.4425 196.966 22.3242 201.318 22.3242C202.088 22.3242 202.304 22.422 203.007 22.6038C201.561 10.9365 204.976 9.11303 207.963 9.11303C210.83 9.11303 215.729 15.012 208.836 29.9751C210.366 34.4381 213.666 34.1857 215.251 24.9982C215.574 23.1307 214.711 20.6105 216.053 20.2588C218.506 19.616 218.767 21.5446 219.917 21.866C221.133 22.2056 221.843 22.1724 223.011 22.3885C225.006 22.7339 225.785 23.6838 225.542 25.7996C225.25 28.4767 224.739 32.3732 226.296 32.8481C227.419 33.1931 229.469 31.1293 229.829 30.0001C230.188 28.871 230.263 28.4845 230.295 27.6563C230.344 25.8861 230.405 24.5886 230.746 23.2499C230.891 22.7319 231.058 22.3888 231.719 22.3654C232.263 22.3531 233.258 22.2079 233.696 22.51C234.28 22.8988 234.207 23.2933 234.14 24.3316C233.461 39.1353 238.687 31.7452 240.245 25.8279C239.69 19.1369 240.071 9.23555 244.802 9.06949C247.262 8.98313 248.35 10.7301 248.47 12.034C248.808 15.7168 246.913 21.8172 244.42 25.9197C242.995 34.2907 250.649 35.9459 251.873 29.2642C249.871 28.4202 247.706 25.0044 249.468 23.3397C250.456 22.4055 254.57 23.7476 254.637 26.6748C256.655 26.1965 256.924 25.1867 256.952 25.354C256.397 18.663 256.912 9.23564 261.643 9.06957C264.103 8.98321 265.191 10.7301 265.31 12.0341C265.649 15.7168 263.753 21.8173 261.261 25.9199C259.836 34.2907 267.49 35.946 268.714 29.2643C267.231 29.0107 264.101 25.3775 265.907 23.3398C266.872 22.2509 270.971 24.5154 271.43 26.7717C273.368 26.2855 273.632 25.3078 273.659 25.4724C273.105 18.7816 273.619 9.35422 278.35 9.18815C280.81 9.10179 281.898 10.8487 282.018 12.1527C282.356 15.8354 280.46 21.936 277.967 26.0385C276.543 34.4095 284.197 36.0644 285.421 29.3827C283.384 29.082 280.488 25.2458 282.818 23.2833C283.75 22.4992 287.308 24.5346 288.141 26.8568C289.298 26.8173 290.018 26.4636 290.173 26.4279C288.325 18.573 289.7 9.14836 294.79 9.06969C297.541 9.02721 300.23 10.3877 299.05 17.8606C297.923 24.9906 293.873 27.9827 293.882 28.0285C294.118 28.8827 296.196 36.0312 301.43 32.2594C301.159 31.7157 300.887 31.1603 300.736 30.4874C299.868 26.5677 301.572 22.1404 306.203 21.4249C308.857 21.0149 311.356 22.1598 311.751 24.741C312.401 28.9645 308.098 32.0233 306.462 32.6868C305.729 32.3178 313.106 36.5107 317.483 28.108C317.737 27.6282 318.043 27.6689 318.44 27.9162C318.72 28.0908 320.315 29.4299 319.573 30.5633ZM204.484 28.2517C204.262 27.6615 203.804 26.361 203.643 25.7976C202.753 25.1114 202.117 25 200.974 25C198.435 25 196.94 27.0809 196.94 29.3247C196.94 31.5684 198.569 33.6496 201.108 33.6496C203.309 33.6496 204.984 32.3235 205.495 30.4462C205.137 29.7143 204.782 29.0417 204.484 28.2517ZM207.9 12.2015C206.116 12.2015 205.511 15.974 205.628 19.1924C205.732 22.0378 206.629 24.5428 207.095 25.6653C207.213 25.8059 207.191 25.7144 207.296 25.8636C210.394 19.8472 209.109 12.2015 207.9 12.2015ZM245.057 12.32C242.751 12.0855 242.766 20.6001 243.052 22.51C244.25 20.8118 246.33 12.7772 245.057 12.32ZM261.897 12.32C259.591 12.0855 259.606 20.6001 259.893 22.51C261.09 20.8118 263.171 12.7772 261.897 12.32ZM278.605 12.4384C276.298 12.204 276.313 20.7186 276.6 22.6287C277.797 20.9303 279.878 12.8956 278.605 12.4384ZM295.044 11.8215C291.451 12.461 292.288 23.0789 292.834 24.9412C297.066 19.789 297.153 11.628 295.044 11.8215ZM308.511 25.0903C308.328 24.4133 307.414 24.0515 306.784 24.1407C304.98 24.359 303.23 26.3505 303.907 29.3824C304.058 30.0576 304.435 30.6792 304.429 30.6585C308.467 28.2577 308.81 26.3659 308.511 25.0903ZM232.426 20.0218C231.911 20.0219 231.406 19.8864 230.978 19.6326C230.549 19.3787 230.215 19.0179 230.017 18.5957C229.82 18.1735 229.768 17.7089 229.869 17.2607C229.969 16.8124 230.218 16.4007 230.582 16.0775C230.947 15.7543 231.411 15.5342 231.917 15.4451C232.423 15.3559 232.947 15.4016 233.423 15.5765C233.9 15.7514 234.307 16.0476 234.593 16.4276C234.88 16.8076 235.033 17.2544 235.033 17.7114C235.033 18.0148 234.965 18.3152 234.834 18.5955C234.703 18.8758 234.511 19.1305 234.269 19.345C234.027 19.5596 233.74 19.7298 233.424 19.8459C233.107 19.962 232.769 20.0218 232.426 20.0218Z" fill="#0D0C22"/>
<g clip-path="url(#clip0_343_703)">
<path d="M372.181 13.1064V22.1942H362.764V13.1064H358.293V34.7997H362.764V26.0071H372.181V34.7997H376.651V13.1064H372.181Z" fill="#33475B"/>
<path d="M390.96 27.7869C390.96 28.6563 390.57 29.4901 389.876 30.1049C389.183 30.7196 388.242 31.065 387.261 31.065C386.28 31.065 385.339 30.7196 384.646 30.1049C383.952 29.4901 383.562 28.6563 383.562 27.7869V18.4953H379.322V27.7869C379.322 29.6513 380.157 31.4394 381.645 32.7578C383.132 34.0761 385.15 34.8168 387.253 34.8168C389.357 34.8168 391.375 34.0761 392.862 32.7578C394.349 31.4394 395.185 29.6513 395.185 27.7869V18.4953H390.96V27.7869Z" fill="#33475B"/>
<path d="M422.381 19.4529C422.381 17.5484 423.803 16.9446 425.36 16.9446C426.615 16.9446 428.273 17.7911 429.358 18.8181L432.135 15.9176C430.749 14.2558 427.936 13.1065 425.634 13.1065C421.034 13.1065 417.707 15.4944 417.707 19.4529C417.707 26.7973 427.835 24.4676 427.835 28.5775C427.835 29.8453 426.447 30.9655 424.856 30.9655C422.348 30.9655 421.536 29.8783 420.383 28.729L417.301 31.5693C419.273 33.7145 421.704 34.8036 424.618 34.8036C428.988 34.8036 432.503 32.3866 432.503 28.6086C432.503 20.4547 422.375 22.9882 422.375 19.4529" fill="#33475B"/>
<path d="M485.042 31.3341C482.536 31.3341 481.824 30.3731 481.824 28.9015V22.3881H485.719V19.0877H481.824V14.7331L477.525 16.4435V29.7111C477.525 33.1047 480.166 34.815 483.789 34.815C484.358 34.8242 484.925 34.7839 485.485 34.6947L486.534 31.272C486.061 31.3011 485.518 31.3302 485.042 31.3302" fill="#33475B"/>
<path d="M407.102 18.6049C405.002 18.6049 403.536 19.1446 402.119 20.3774V13.2369H397.872V26.4715C397.872 31.4259 401.913 34.8195 406.454 34.8195C411.492 34.8195 415.924 31.3658 415.924 26.7141C415.924 22.1208 411.845 18.6068 407.102 18.6068V18.6049ZM407.076 31.0318C406.123 31.0318 405.191 30.7813 404.399 30.312C403.606 29.8427 402.989 29.1757 402.624 28.3952C402.259 27.6148 402.164 26.756 402.35 25.9275C402.536 25.099 402.995 24.3379 403.669 23.7406C404.343 23.1433 405.201 22.7365 406.136 22.5717C407.071 22.4069 408.04 22.4915 408.92 22.8148C409.801 23.138 410.554 23.6855 411.083 24.3878C411.613 25.0902 411.895 25.916 411.895 26.7607C411.895 27.8935 411.388 28.9799 410.484 29.7809C409.58 30.5818 408.354 31.0318 407.076 31.0318Z" fill="#33475B"/>
<path d="M453.221 26.5153C453.221 21.8559 448.798 18.4099 443.751 18.4099C439.21 18.4099 435.169 21.8035 435.169 26.758V40.0003H439.416V32.8501C440.831 34.0809 442.299 34.6226 444.398 34.6226C449.14 34.6226 453.219 31.1106 453.219 26.5153H453.221ZM449.199 26.4687C449.199 27.3134 448.916 28.1392 448.387 28.8416C447.857 29.544 447.105 30.0914 446.224 30.4147C445.344 30.7379 444.375 30.8225 443.44 30.6577C442.505 30.4929 441.646 30.0861 440.972 29.4888C440.298 28.8915 439.839 28.1304 439.654 27.3019C439.468 26.4734 439.563 25.6146 439.928 24.8342C440.292 24.0538 440.91 23.3867 441.703 22.9174C442.495 22.4481 443.427 22.1976 444.38 22.1976C445.658 22.1976 446.884 22.6476 447.788 23.4486C448.691 24.2495 449.199 25.3359 449.199 26.4687Z" fill="#33475B"/>
</g>
<g clip-path="url(#clip1_343_703)">
<path d="M152.941 102.775V88.2199H153.234L165.188 102.775H168.949V81.4006H164.77V95.919H164.477L152.523 81.4006H148.761V102.775H152.941ZM180.778 103.105C186.295 103.105 189.681 99.9519 189.681 94.6725C189.681 89.4297 186.295 86.2401 180.778 86.2401C175.302 86.2401 171.875 89.4297 171.875 94.6725C171.917 99.9519 175.261 103.105 180.778 103.105ZM180.778 100.025C177.852 100.025 176.18 98.0821 176.18 94.6725C176.18 91.2995 177.852 89.3198 180.778 89.3198C183.704 89.3198 185.376 91.2995 185.376 94.6725C185.376 98.0821 183.704 100.025 180.778 100.025ZM193.484 82.6105V86.68H190.558V89.6131H193.484V98.4487C193.484 101.602 195.156 102.848 199.419 102.848C200.213 102.848 201.008 102.775 201.635 102.665V99.8053C201.133 99.8419 200.799 99.8786 200.213 99.8786C198.458 99.8786 197.664 99.182 197.664 97.5688V89.6131H201.635V86.68H197.664V82.6105H193.484ZM204.142 102.775H208.322V86.5701H204.142V102.775ZM206.232 83.8937C207.612 83.8937 208.74 82.9038 208.74 81.6939C208.74 80.4474 207.612 79.4575 206.232 79.4575C204.853 79.4575 203.724 80.4474 203.724 81.6939C203.724 82.9038 204.853 83.8937 206.232 83.8937ZM219.774 103.105C225.292 103.105 228.677 99.9519 228.677 94.6725C228.677 89.4297 225.292 86.2401 219.774 86.2401C214.299 86.2401 210.872 89.4297 210.872 94.6725C210.872 99.9519 214.215 103.105 219.774 103.105ZM219.774 100.025C216.849 100.025 215.177 98.0821 215.177 94.6725C215.177 91.2995 216.849 89.3198 219.774 89.3198C222.658 89.3198 224.372 91.2995 224.372 94.6725C224.33 98.0821 222.658 100.025 219.774 100.025ZM231.143 102.775H235.323V93.3526C235.323 90.9696 236.911 89.4664 239.377 89.4664C241.927 89.4664 243.097 90.7129 243.097 93.1693V102.775H247.277V92.2894C247.277 88.4032 245.02 86.2401 240.924 86.2401C238.165 86.2401 236.326 87.34 235.448 89.1731H235.156V86.5701H231.101C231.143 86.5701 231.143 102.775 231.143 102.775Z" fill="black"/>
<path fill-rule="evenodd" clip-rule="evenodd" d="M108.685 80.0326C109.902 80.9024 110.342 80.8337 112.619 80.6964L134.077 79.5519C134.542 79.5519 134.154 79.1399 133.999 79.0941L130.427 76.8281C129.754 76.3703 128.822 75.8209 127.088 75.9583L106.33 77.3087C105.579 77.3774 105.424 77.7208 105.734 77.9725L108.685 80.0326ZM109.979 84.4502V104.41C109.979 105.486 110.575 105.875 111.946 105.806L135.526 104.593C136.898 104.524 137.053 103.792 137.053 102.922V83.0998C137.053 82.23 136.665 81.7493 135.837 81.818L111.196 83.0998C110.29 83.1684 109.979 83.5804 109.979 84.4502ZM133.248 85.5261C133.404 86.1212 133.248 86.7392 132.575 86.8079L131.436 87.0139V101.755C130.453 102.212 129.547 102.487 128.77 102.487C127.554 102.487 127.243 102.144 126.337 101.137L118.909 90.8135V100.793L121.264 101.251C121.264 101.251 121.264 102.464 119.375 102.464L114.146 102.739C113.991 102.464 114.146 101.8 114.664 101.663L116.036 101.32V88.1355L114.146 87.9981C113.991 87.403 114.379 86.5332 115.441 86.4645L121.057 86.1212L128.796 96.5588V87.3343L126.829 87.1283C126.674 86.3959 127.295 85.8465 128.046 85.7778L133.248 85.5261ZM104.596 75.4776L126.208 74.0813C128.848 73.8753 129.547 74.0127 131.203 75.0885L138.088 79.3688C139.227 80.1013 139.615 80.3073 139.615 81.1084V104.616C139.615 106.081 139.02 106.951 136.898 107.088L111.817 108.438C110.212 108.507 109.462 108.301 108.633 107.363L103.534 101.526C102.628 100.45 102.24 99.6488 102.24 98.7104V77.8123C102.24 76.5992 102.861 75.6149 104.596 75.4776Z" fill="black"/>
</g>
<g clip-path="url(#clip2_343_703)">
<path d="M-42.7781 106.066C-44.6622 106.36 -46.5794 106.447 -48.5627 106.682L-54.612 90.9786V107.356C-56.4961 107.531 -58.215 107.766 -60 108V78H-54.9754L-48.1 95.0217V78H-42.7781V106.066ZM-32.3655 88.9863C-30.3159 88.9863 -27.1757 88.8984 -25.2916 88.8984V93.5858C-27.6386 93.5858 -30.3821 93.5858 -32.3655 93.6737V100.647C-29.2581 100.471 -26.1509 100.236 -23.0108 100.148V104.66L-37.6545 105.685V78H-23.0108V82.6875H-32.3655V88.9863ZM-3.34274 82.6876H-8.82991V104.25C-10.6149 104.25 -12.4 104.25 -14.1186 104.309V82.6876H-19.6057V78H-3.34249L-3.34274 82.6876ZM5.25166 88.6642H12.491V93.3516H5.25166V103.986H0.0615845V78H14.8379V82.6875H5.25166V88.6642ZM23.4323 99.8848C26.4404 99.9432 29.4814 100.149 32.4235 100.295V104.924C27.6966 104.66 22.9696 104.397 18.1435 104.309V78H23.4323V99.8848ZM36.8859 105.246C38.5717 105.334 40.3568 105.422 42.0756 105.598V78H36.8859V105.246ZM65.2478 78L58.5374 92.2676L65.2478 108C63.2643 107.766 61.281 107.443 59.2976 107.15L55.4963 98.4786L51.6292 106.447C49.7116 106.154 47.8605 106.066 45.9436 105.832L52.753 92.0917L46.6045 78H52.2898L55.7607 85.8809L59.4631 78H65.2478V78Z" fill="#D81F26"/>
</g>
<g clip-path="url(#clip3_343_703)">
<path fill-rule="evenodd" clip-rule="evenodd" d="M375.934 88.5972C376.356 89.2429 376.494 89.9774 376.54 90.8032L376.599 91.9039V99.6007L376.661 100.703C376.783 102.502 378.281 103.833 380.327 103.946L381.563 104V91.9039L381.624 90.8032C381.675 89.9867 381.812 89.2382 382.241 88.588C382.678 87.921 383.305 87.3677 384.059 86.9835C384.814 86.5993 385.669 86.3978 386.539 86.3992C387.409 86.4006 388.264 86.6049 389.017 86.9915C389.77 87.3781 390.395 87.9335 390.829 88.6018C391.251 89.2475 391.383 89.9959 391.433 90.8032L391.495 91.9005V99.6007L391.556 100.703C391.684 102.511 393.169 103.842 395.222 103.946L396.458 104V90.8032C396.458 88.4697 395.413 86.2317 393.551 84.5813C391.69 82.9309 389.165 82.0032 386.532 82.0023C385.123 82.001 383.73 82.2662 382.445 82.7803C381.161 83.2944 380.015 84.0454 379.085 84.9833C378.154 84.0458 377.008 83.2949 375.724 82.7807C374.439 82.2665 373.046 82.0007 371.637 82.0012C369.575 82.0012 367.662 82.5555 366.078 83.513C365.111 82.5567 362.948 82.0012 361.706 82.0012V104L362.948 103.946C365.025 103.824 366.526 102.53 366.607 100.703L366.673 99.6007V91.9039L366.735 90.8032C366.787 89.9728 366.917 89.2429 367.341 88.5926C367.778 87.9261 368.405 87.3728 369.159 86.9882C369.913 86.6035 370.767 86.4009 371.637 86.4005C372.508 86.4006 373.363 86.6037 374.117 86.9893C374.871 87.3748 375.498 87.9294 375.934 88.5972ZM290.964 103.947L292.206 104H310.821L310.76 102.903C310.592 101.094 309.147 99.7728 307.099 99.655L305.858 99.6007H294.689L309.579 86.3993L309.518 85.3032C309.422 83.4761 307.915 82.1559 305.858 82.0554L304.616 82.0058L286 82.0012L286.061 83.1019C286.224 84.8932 287.69 86.2422 289.721 86.3462L290.964 86.4005H302.132L287.242 99.6018L287.303 100.703C287.426 102.516 288.902 103.829 290.964 103.946V103.947ZM356.833 85.2212C357.986 86.2426 358.9 87.4552 359.524 88.7898C360.148 90.1244 360.469 91.5548 360.469 92.9994C360.469 94.444 360.148 95.8744 359.524 97.209C358.9 98.5436 357.986 99.7562 356.833 100.778C354.504 102.84 351.347 103.998 348.055 103.998C344.763 103.998 341.606 102.84 339.277 100.778C334.431 96.4823 334.431 89.5166 339.277 85.2212C340.429 84.2002 341.796 83.3902 343.301 82.8375C344.805 82.2848 346.418 82.0002 348.047 82C349.679 81.999 351.295 82.2831 352.802 82.836C354.31 83.3889 355.68 84.1999 356.833 85.2224V85.2212ZM353.321 88.3362C354.717 89.5744 355.501 91.2531 355.501 93.0035C355.501 94.7538 354.717 96.4326 353.321 97.6707C351.924 98.908 350.03 99.6029 348.055 99.6029C346.08 99.6029 344.186 98.908 342.789 97.6707C341.393 96.4326 340.609 94.7538 340.609 93.0035C340.609 91.2531 341.393 89.5744 342.789 88.3362C344.186 87.099 346.08 86.404 348.055 86.404C350.03 86.404 351.924 87.099 353.321 88.3362ZM322 82C323.629 82.0004 325.242 82.2851 326.747 82.8381C328.251 83.391 329.619 84.2012 330.77 85.2224C335.618 89.5166 335.618 96.4834 330.77 100.778C328.441 102.84 325.284 103.998 321.992 103.998C318.7 103.998 315.543 102.84 313.214 100.778C308.367 96.4823 308.367 89.5166 313.214 85.2212C314.365 84.2002 315.733 83.3902 317.238 82.8375C318.742 82.2848 320.355 82.0002 321.984 82H322ZM327.258 88.3339C328.654 89.5721 329.439 91.2511 329.439 93.0017C329.439 94.7524 328.654 96.4314 327.258 97.6696C325.861 98.9068 323.967 99.6018 321.992 99.6018C320.017 99.6018 318.123 98.9068 316.726 97.6696C315.33 96.4314 314.546 94.7527 314.546 93.0023C314.546 91.252 315.33 89.5732 316.726 88.335C318.123 87.0978 320.017 86.4028 321.992 86.4028C323.967 86.4028 325.861 87.0978 327.258 88.335V88.3339Z" fill="#2D8CFF"/>
</g>
</g>
<defs>
<clipPath id="clip0_343_703">
<rect width="128.626" height="48" fill="white" transform="translate(358.293)"/>
</clipPath>
<clipPath id="clip1_343_703">
<rect width="145.551" height="48" fill="white" transform="translate(102.24 68)"/>
</clipPath>
<clipPath id="clip2_343_703">
<rect width="125.241" height="48" fill="white" transform="translate(-60 68)"/>
</clipPath>
<clipPath id="clip3_343_703">
<rect width="110.573" height="48" fill="white" transform="translate(286 68)"/>
</clipPath>
</defs>
</svg>
